<svg width="28" height="28" viewBox="0 0 28 28" fill="none" xmlns="http://www.w3.org/2000/svg">
<path d="M23.334 14.3203C23.334 14.7633 23.0048 15.1294 22.5777 15.1873L22.459 15.1953L4.95898 15.1953C4.47573 15.1953 4.08398 14.8036 4.08398 14.3203C4.08398 13.8773 4.41316 13.5112 4.84025 13.4533L4.95898 13.4453L22.459 13.4453C22.9422 13.4453 23.334 13.8371 23.334 14.3203Z" fill="#212121"/>
<path d="M12.635 20.7281C12.9774 21.0691 12.9786 21.6231 12.6376 21.9656C12.3277 22.2769 11.8416 22.3062 11.4985 22.0527L11.4002 21.9682L4.34186 14.9402C4.02962 14.6293 4.00121 14.1415 4.25666 13.7984L4.34181 13.7002L11.4001 6.67102C11.7426 6.33002 12.2966 6.33116 12.6376 6.67358C12.9476 6.98487 12.9748 7.47103 12.7199 7.81305L12.635 7.91101L6.19964 14.3205L12.635 20.7281Z" fill="#212121"/>
</svg>
