<svg width="25" height="25" viewBox="0 0 25 25" fill="none" xmlns="http://www.w3.org/2000/svg">
<path fill-rule="evenodd" clip-rule="evenodd" d="M10.5803 19.0928H4.2793C3.8653 19.0928 3.5293 18.7568 3.5293 18.3428C3.5293 17.9288 3.8653 17.5928 4.2793 17.5928H10.5803C10.9943 17.5928 11.3303 17.9288 11.3303 18.3428C11.3303 18.7568 10.9943 19.0928 10.5803 19.0928Z" fill="#212121"/>
<path fill-rule="evenodd" clip-rule="evenodd" d="M17.8879 16.708C16.9979 16.708 16.2739 17.424 16.2739 18.304C16.2739 19.185 16.9979 19.9 17.8879 19.9C18.7769 19.9 19.4999 19.185 19.4999 18.304C19.4999 17.424 18.7769 16.708 17.8879 16.708ZM17.8879 21.4C16.1709 21.4 14.7739 20.011 14.7739 18.304C14.7739 16.597 16.1709 15.208 17.8879 15.208C19.6039 15.208 20.9999 16.597 20.9999 18.304C20.9999 20.011 19.6039 21.4 17.8879 21.4Z" fill="#212121"/>
<path fill-rule="evenodd" clip-rule="evenodd" d="M19.6911 9.40039H13.3911C12.9771 9.40039 12.6411 9.06439 12.6411 8.65039C12.6411 8.23639 12.9771 7.90039 13.3911 7.90039H19.6911C20.1051 7.90039 20.4411 8.23639 20.4411 8.65039C20.4411 9.06439 20.1051 9.40039 19.6911 9.40039Z" fill="#212121"/>
<mask id="mask0_16887_54911" style="mask-type:luminance" maskUnits="userSpaceOnUse" x="3" y="5" width="7" height="7">
<path fill-rule="evenodd" clip-rule="evenodd" d="M3.5 5.50049H9.7258V11.6921H3.5V5.50049Z" fill="white"/>
</mask>
<g mask="url(#mask0_16887_54911)">
<path fill-rule="evenodd" clip-rule="evenodd" d="M6.613 7C5.724 7 5 7.716 5 8.597C5 9.477 5.724 10.192 6.613 10.192C7.503 10.192 8.226 9.477 8.226 8.597C8.226 7.716 7.503 7 6.613 7ZM6.613 11.692C4.897 11.692 3.5 10.304 3.5 8.597C3.5 6.89 4.897 5.5 6.613 5.5C8.33 5.5 9.726 6.89 9.726 8.597C9.726 10.304 8.33 11.692 6.613 11.692Z" fill="#212121"/>
</g>
</svg>
