<?xml version="1.0" encoding="UTF-8"?>
<svg width="96.6688337px" height="15.8344123px" viewBox="0 0 96.6688337 15.8344123" version="1.1" xmlns="http://www.w3.org/2000/svg" xmlns:xlink="http://www.w3.org/1999/xlink">
    <title>Group 2</title>
    <g id="Page-1" stroke="none" stroke-width="1" fill="none" fill-rule="evenodd">
        <g id="Group-2" fill="#FF981F" fill-rule="nonzero">
            <g id="Star1" transform="translate(80.000000, 0.000000)">
                <path d="M13.2657367,9.85 C13.0499367,10.0592 12.9507367,10.3617 12.9999367,10.6583 L13.7407367,14.7583 C13.8032367,15.1058 13.6565367,15.4575 13.3657367,15.6583 C13.0807367,15.8667 12.7015367,15.8917 12.3907367,15.725 L8.69993667,13.8 C8.57153667,13.7317 8.42903667,13.695 8.28322667,13.6908 L8.05739667,13.6908 C7.97905667,13.7025 7.90239667,13.7275 7.83239667,13.7658 L4.14072667,15.7 C3.95822667,15.7917 3.75155667,15.8242 3.54905667,15.7917 C3.05572667,15.6983 2.72655667,15.2283 2.80739667,14.7325 L3.54905667,10.6325 C3.59822667,10.3333 3.49905667,10.0292 3.28322667,9.8167 L0.274056675,6.9 C0.0223966747,6.65583 -0.0651033253,6.28916 0.0498966747,5.95833 C0.161556675,5.62833 0.446556675,5.3875 0.790726675,5.33333 L4.93239667,4.7325 C5.24739667,4.7 5.52405667,4.50833 5.66572667,4.225 L7.49072667,0.48333 C7.53405667,0.4 7.58989667,0.32333 7.65739667,0.25833 L7.73239667,0.2 C7.77155667,0.15666 7.81655667,0.12083 7.86655667,0.09166 L7.95739667,0.05833 L8.09905667,8.8817842e-16 L8.44993667,8.8817842e-16 C8.76323667,0.0325 9.03903667,0.22 9.18323667,0.5 L11.0324367,4.225 C11.1657367,4.4975 11.4249367,4.68666 11.7240367,4.7325 L15.8657367,5.33333 C16.2157367,5.38333 16.5082367,5.625 16.6240367,5.95833 C16.7332367,6.2925 16.6390367,6.65916 16.3824367,6.9 L13.2657367,9.85 Z" id="Path"></path>
            </g>
            <g id="Star1" transform="translate(60.000000, 0.000000)">
                <path d="M13.2657367,9.85 C13.0499367,10.0592 12.9507367,10.3617 12.9999367,10.6583 L13.7407367,14.7583 C13.8032367,15.1058 13.6565367,15.4575 13.3657367,15.6583 C13.0807367,15.8667 12.7015367,15.8917 12.3907367,15.725 L8.69993667,13.8 C8.57153667,13.7317 8.42903667,13.695 8.28322667,13.6908 L8.05739667,13.6908 C7.97905667,13.7025 7.90239667,13.7275 7.83239667,13.7658 L4.14072667,15.7 C3.95822667,15.7917 3.75155667,15.8242 3.54905667,15.7917 C3.05572667,15.6983 2.72655667,15.2283 2.80739667,14.7325 L3.54905667,10.6325 C3.59822667,10.3333 3.49905667,10.0292 3.28322667,9.8167 L0.274056675,6.9 C0.0223966747,6.65583 -0.0651033253,6.28916 0.0498966747,5.95833 C0.161556675,5.62833 0.446556675,5.3875 0.790726675,5.33333 L4.93239667,4.7325 C5.24739667,4.7 5.52405667,4.50833 5.66572667,4.225 L7.49072667,0.48333 C7.53405667,0.4 7.58989667,0.32333 7.65739667,0.25833 L7.73239667,0.2 C7.77155667,0.15666 7.81655667,0.12083 7.86655667,0.09166 L7.95739667,0.05833 L8.09905667,8.8817842e-16 L8.44993667,8.8817842e-16 C8.76323667,0.0325 9.03903667,0.22 9.18323667,0.5 L11.0324367,4.225 C11.1657367,4.4975 11.4249367,4.68666 11.7240367,4.7325 L15.8657367,5.33333 C16.2157367,5.38333 16.5082367,5.625 16.6240367,5.95833 C16.7332367,6.2925 16.6390367,6.65916 16.3824367,6.9 L13.2657367,9.85 Z" id="Path"></path>
            </g>
            <g id="Star1" transform="translate(40.000000, 0.000000)">
                <path d="M13.2657367,9.85 C13.0499367,10.0592 12.9507367,10.3617 12.9999367,10.6583 L13.7407367,14.7583 C13.8032367,15.1058 13.6565367,15.4575 13.3657367,15.6583 C13.0807367,15.8667 12.7015367,15.8917 12.3907367,15.725 L8.69993667,13.8 C8.57153667,13.7317 8.42903667,13.695 8.28322667,13.6908 L8.05739667,13.6908 C7.97905667,13.7025 7.90239667,13.7275 7.83239667,13.7658 L4.14072667,15.7 C3.95822667,15.7917 3.75155667,15.8242 3.54905667,15.7917 C3.05572667,15.6983 2.72655667,15.2283 2.80739667,14.7325 L3.54905667,10.6325 C3.59822667,10.3333 3.49905667,10.0292 3.28322667,9.8167 L0.274056675,6.9 C0.0223966747,6.65583 -0.0651033253,6.28916 0.0498966747,5.95833 C0.161556675,5.62833 0.446556675,5.3875 0.790726675,5.33333 L4.93239667,4.7325 C5.24739667,4.7 5.52405667,4.50833 5.66572667,4.225 L7.49072667,0.48333 C7.53405667,0.4 7.58989667,0.32333 7.65739667,0.25833 L7.73239667,0.2 C7.77155667,0.15666 7.81655667,0.12083 7.86655667,0.09166 L7.95739667,0.05833 L8.09905667,8.8817842e-16 L8.44993667,8.8817842e-16 C8.76323667,0.0325 9.03903667,0.22 9.18323667,0.5 L11.0324367,4.225 C11.1657367,4.4975 11.4249367,4.68666 11.7240367,4.7325 L15.8657367,5.33333 C16.2157367,5.38333 16.5082367,5.625 16.6240367,5.95833 C16.7332367,6.2925 16.6390367,6.65916 16.3824367,6.9 L13.2657367,9.85 Z" id="Path"></path>
            </g>
            <g id="Star1" transform="translate(20.000000, 0.000000)">
                <path d="M13.2657367,9.85 C13.0499367,10.0592 12.9507367,10.3617 12.9999367,10.6583 L13.7407367,14.7583 C13.8032367,15.1058 13.6565367,15.4575 13.3657367,15.6583 C13.0807367,15.8667 12.7015367,15.8917 12.3907367,15.725 L8.69993667,13.8 C8.57153667,13.7317 8.42903667,13.695 8.28322667,13.6908 L8.05739667,13.6908 C7.97905667,13.7025 7.90239667,13.7275 7.83239667,13.7658 L4.14072667,15.7 C3.95822667,15.7917 3.75155667,15.8242 3.54905667,15.7917 C3.05572667,15.6983 2.72655667,15.2283 2.80739667,14.7325 L3.54905667,10.6325 C3.59822667,10.3333 3.49905667,10.0292 3.28322667,9.8167 L0.274056675,6.9 C0.0223966747,6.65583 -0.0651033253,6.28916 0.0498966747,5.95833 C0.161556675,5.62833 0.446556675,5.3875 0.790726675,5.33333 L4.93239667,4.7325 C5.24739667,4.7 5.52405667,4.50833 5.66572667,4.225 L7.49072667,0.48333 C7.53405667,0.4 7.58989667,0.32333 7.65739667,0.25833 L7.73239667,0.2 C7.77155667,0.15666 7.81655667,0.12083 7.86655667,0.09166 L7.95739667,0.05833 L8.09905667,8.8817842e-16 L8.44993667,8.8817842e-16 C8.76323667,0.0325 9.03903667,0.22 9.18323667,0.5 L11.0324367,4.225 C11.1657367,4.4975 11.4249367,4.68666 11.7240367,4.7325 L15.8657367,5.33333 C16.2157367,5.38333 16.5082367,5.625 16.6240367,5.95833 C16.7332367,6.2925 16.6390367,6.65916 16.3824367,6.9 L13.2657367,9.85 Z" id="Path"></path>
            </g>
            <g id="Star1">
                <path d="M13.2657367,9.85 C13.0499367,10.0592 12.9507367,10.3617 12.9999367,10.6583 L13.7407367,14.7583 C13.8032367,15.1058 13.6565367,15.4575 13.3657367,15.6583 C13.0807367,15.8667 12.7015367,15.8917 12.3907367,15.725 L8.69993667,13.8 C8.57153667,13.7317 8.42903667,13.695 8.28322667,13.6908 L8.05739667,13.6908 C7.97905667,13.7025 7.90239667,13.7275 7.83239667,13.7658 L4.14072667,15.7 C3.95822667,15.7917 3.75155667,15.8242 3.54905667,15.7917 C3.05572667,15.6983 2.72655667,15.2283 2.80739667,14.7325 L3.54905667,10.6325 C3.59822667,10.3333 3.49905667,10.0292 3.28322667,9.8167 L0.274056675,6.9 C0.0223966747,6.65583 -0.0651033253,6.28916 0.0498966747,5.95833 C0.161556675,5.62833 0.446556675,5.3875 0.790726675,5.33333 L4.93239667,4.7325 C5.24739667,4.7 5.52405667,4.50833 5.66572667,4.225 L7.49072667,0.48333 C7.53405667,0.4 7.58989667,0.32333 7.65739667,0.25833 L7.73239667,0.2 C7.77155667,0.15666 7.81655667,0.12083 7.86655667,0.09166 L7.95739667,0.05833 L8.09905667,8.8817842e-16 L8.44993667,8.8817842e-16 C8.76323667,0.0325 9.03903667,0.22 9.18323667,0.5 L11.0324367,4.225 C11.1657367,4.4975 11.4249367,4.68666 11.7240367,4.7325 L15.8657367,5.33333 C16.2157367,5.38333 16.5082367,5.625 16.6240367,5.95833 C16.7332367,6.2925 16.6390367,6.65916 16.3824367,6.9 L13.2657367,9.85 Z" id="Path"></path>
            </g>
        </g>
    </g>
</svg>