<?xml version="1.0" encoding="UTF-8"?>
<svg width="96.4497017px" height="15.8344123px" viewBox="0 0 96.4497017 15.8344123" version="1.1" xmlns="http://www.w3.org/2000/svg" xmlns:xlink="http://www.w3.org/1999/xlink">
    <title>Group 2</title>
    <g id="Page-1" stroke="none" stroke-width="1" fill="none" fill-rule="evenodd">
        <g id="Group-2">
            <g id="Group" transform="translate(80.000000, 0.000000)" fill="#616161">
                <g id="Star0" transform="translate(0.200000, 0.400000)">
                    <path d="M8.12493266,1.25 C8.04910266,1.25 7.86243266,1.27083 7.76326266,1.46917 L6.24159266,4.51167 C6.00076266,4.9925 5.53660266,5.32667 4.99993266,5.40333 L1.59326266,5.89417 C1.36826266,5.92667 1.29159266,6.09333 1.26826266,6.16333 C1.24743266,6.23083 1.21409266,6.4025 1.36909266,6.55083 L3.83243266,8.9175 C4.22493266,9.295 4.40326266,9.8392 4.30993266,10.3717 L3.72993266,13.7133 C3.69409266,13.9225 3.82493266,14.0442 3.88326266,14.0858 C3.94493266,14.1325 4.10993266,14.225 4.31409266,14.1183 L7.35993266,12.5392 C7.83993266,12.2917 8.41155266,12.2917 8.88995266,12.5392 L11.9349527,14.1175 C12.1399527,14.2233 12.3049527,14.1308 12.3674527,14.0858 C12.4257527,14.0442 12.5565527,13.9225 12.5207527,13.7133 L11.9390527,10.3717 C11.8457527,9.8392 12.0240527,9.295 12.4165527,8.9175 L14.8799527,6.55083 C15.0357527,6.4025 15.0024527,6.23 14.9807527,6.16333 C14.9582527,6.09333 14.8815527,5.92667 14.6565527,5.89417 L11.2499527,5.40333 C10.7140527,5.32667 10.2499527,4.9925 10.0090527,4.51083 L8.48575266,1.46917 C8.38745266,1.27083 8.20076266,1.25 8.12493266,1.25 Z M4.12243266,15.4167 C3.77826266,15.4167 3.43660266,15.3083 3.14410266,15.095 C2.63910266,14.725 2.39160266,14.1142 2.49910266,13.4992 L3.07910266,10.1575 C3.10076266,10.0333 3.05826266,9.9075 2.96660266,9.8192 L0.503262664,7.4525 C0.0499326642,7.01833 -0.112567336,6.37667 0.0790926642,5.78083 C0.272432664,5.17833 0.784092664,4.7475 1.41493266,4.6575 L4.82160266,4.16667 C4.95326266,4.14833 5.06660266,4.0675 5.12326266,3.9525 L6.64576266,0.90917 C6.92660266,0.34833 7.49326266,0 8.12493266,0 C8.75655266,0 9.32325266,0.34833 9.60405266,0.90917 L11.1274527,3.95167 C11.1849527,4.0675 11.2974527,4.14833 11.4282527,4.16667 L14.8349527,4.6575 C15.4657527,4.7475 15.9774527,5.17833 16.1707527,5.78083 C16.3624527,6.37667 16.1990527,7.01833 15.7457527,7.4525 L13.2824527,9.8192 C13.1907527,9.9075 13.1490527,10.0333 13.1707527,10.1567 L13.7515527,13.4992 C13.8582527,14.115 13.6107527,14.7258 13.1049527,15.095 C12.5924527,15.4708 11.9249527,15.5217 11.3590527,15.2267 L8.31493266,13.6492 C8.19576266,13.5875 8.05326266,13.5875 7.93410266,13.6492 L4.88993266,15.2275 C4.64660266,15.3542 4.38410266,15.4167 4.12243266,15.4167 Z" id="Shape"></path>
                </g>
            </g>
            <g id="Group-Copy-4" transform="translate(60.000000, 0.000000)" fill="#616161">
                <g id="Star0" transform="translate(0.200000, 0.400000)">
                    <path d="M8.12493266,1.25 C8.04910266,1.25 7.86243266,1.27083 7.76326266,1.46917 L6.24159266,4.51167 C6.00076266,4.9925 5.53660266,5.32667 4.99993266,5.40333 L1.59326266,5.89417 C1.36826266,5.92667 1.29159266,6.09333 1.26826266,6.16333 C1.24743266,6.23083 1.21409266,6.4025 1.36909266,6.55083 L3.83243266,8.9175 C4.22493266,9.295 4.40326266,9.8392 4.30993266,10.3717 L3.72993266,13.7133 C3.69409266,13.9225 3.82493266,14.0442 3.88326266,14.0858 C3.94493266,14.1325 4.10993266,14.225 4.31409266,14.1183 L7.35993266,12.5392 C7.83993266,12.2917 8.41155266,12.2917 8.88995266,12.5392 L11.9349527,14.1175 C12.1399527,14.2233 12.3049527,14.1308 12.3674527,14.0858 C12.4257527,14.0442 12.5565527,13.9225 12.5207527,13.7133 L11.9390527,10.3717 C11.8457527,9.8392 12.0240527,9.295 12.4165527,8.9175 L14.8799527,6.55083 C15.0357527,6.4025 15.0024527,6.23 14.9807527,6.16333 C14.9582527,6.09333 14.8815527,5.92667 14.6565527,5.89417 L11.2499527,5.40333 C10.7140527,5.32667 10.2499527,4.9925 10.0090527,4.51083 L8.48575266,1.46917 C8.38745266,1.27083 8.20076266,1.25 8.12493266,1.25 Z M4.12243266,15.4167 C3.77826266,15.4167 3.43660266,15.3083 3.14410266,15.095 C2.63910266,14.725 2.39160266,14.1142 2.49910266,13.4992 L3.07910266,10.1575 C3.10076266,10.0333 3.05826266,9.9075 2.96660266,9.8192 L0.503262664,7.4525 C0.0499326642,7.01833 -0.112567336,6.37667 0.0790926642,5.78083 C0.272432664,5.17833 0.784092664,4.7475 1.41493266,4.6575 L4.82160266,4.16667 C4.95326266,4.14833 5.06660266,4.0675 5.12326266,3.9525 L6.64576266,0.90917 C6.92660266,0.34833 7.49326266,0 8.12493266,0 C8.75655266,0 9.32325266,0.34833 9.60405266,0.90917 L11.1274527,3.95167 C11.1849527,4.0675 11.2974527,4.14833 11.4282527,4.16667 L14.8349527,4.6575 C15.4657527,4.7475 15.9774527,5.17833 16.1707527,5.78083 C16.3624527,6.37667 16.1990527,7.01833 15.7457527,7.4525 L13.2824527,9.8192 C13.1907527,9.9075 13.1490527,10.0333 13.1707527,10.1567 L13.7515527,13.4992 C13.8582527,14.115 13.6107527,14.7258 13.1049527,15.095 C12.5924527,15.4708 11.9249527,15.5217 11.3590527,15.2267 L8.31493266,13.6492 C8.19576266,13.5875 8.05326266,13.5875 7.93410266,13.6492 L4.88993266,15.2275 C4.64660266,15.3542 4.38410266,15.4167 4.12243266,15.4167 Z" id="Shape"></path>
                </g>
            </g>
            <g id="Group-Copy-3" transform="translate(40.000000, 0.000000)" fill="#616161">
                <g id="Star0" transform="translate(0.200000, 0.400000)">
                    <path d="M8.12493266,1.25 C8.04910266,1.25 7.86243266,1.27083 7.76326266,1.46917 L6.24159266,4.51167 C6.00076266,4.9925 5.53660266,5.32667 4.99993266,5.40333 L1.59326266,5.89417 C1.36826266,5.92667 1.29159266,6.09333 1.26826266,6.16333 C1.24743266,6.23083 1.21409266,6.4025 1.36909266,6.55083 L3.83243266,8.9175 C4.22493266,9.295 4.40326266,9.8392 4.30993266,10.3717 L3.72993266,13.7133 C3.69409266,13.9225 3.82493266,14.0442 3.88326266,14.0858 C3.94493266,14.1325 4.10993266,14.225 4.31409266,14.1183 L7.35993266,12.5392 C7.83993266,12.2917 8.41155266,12.2917 8.88995266,12.5392 L11.9349527,14.1175 C12.1399527,14.2233 12.3049527,14.1308 12.3674527,14.0858 C12.4257527,14.0442 12.5565527,13.9225 12.5207527,13.7133 L11.9390527,10.3717 C11.8457527,9.8392 12.0240527,9.295 12.4165527,8.9175 L14.8799527,6.55083 C15.0357527,6.4025 15.0024527,6.23 14.9807527,6.16333 C14.9582527,6.09333 14.8815527,5.92667 14.6565527,5.89417 L11.2499527,5.40333 C10.7140527,5.32667 10.2499527,4.9925 10.0090527,4.51083 L8.48575266,1.46917 C8.38745266,1.27083 8.20076266,1.25 8.12493266,1.25 Z M4.12243266,15.4167 C3.77826266,15.4167 3.43660266,15.3083 3.14410266,15.095 C2.63910266,14.725 2.39160266,14.1142 2.49910266,13.4992 L3.07910266,10.1575 C3.10076266,10.0333 3.05826266,9.9075 2.96660266,9.8192 L0.503262664,7.4525 C0.0499326642,7.01833 -0.112567336,6.37667 0.0790926642,5.78083 C0.272432664,5.17833 0.784092664,4.7475 1.41493266,4.6575 L4.82160266,4.16667 C4.95326266,4.14833 5.06660266,4.0675 5.12326266,3.9525 L6.64576266,0.90917 C6.92660266,0.34833 7.49326266,0 8.12493266,0 C8.75655266,0 9.32325266,0.34833 9.60405266,0.90917 L11.1274527,3.95167 C11.1849527,4.0675 11.2974527,4.14833 11.4282527,4.16667 L14.8349527,4.6575 C15.4657527,4.7475 15.9774527,5.17833 16.1707527,5.78083 C16.3624527,6.37667 16.1990527,7.01833 15.7457527,7.4525 L13.2824527,9.8192 C13.1907527,9.9075 13.1490527,10.0333 13.1707527,10.1567 L13.7515527,13.4992 C13.8582527,14.115 13.6107527,14.7258 13.1049527,15.095 C12.5924527,15.4708 11.9249527,15.5217 11.3590527,15.2267 L8.31493266,13.6492 C8.19576266,13.5875 8.05326266,13.5875 7.93410266,13.6492 L4.88993266,15.2275 C4.64660266,15.3542 4.38410266,15.4167 4.12243266,15.4167 Z" id="Shape"></path>
                </g>
            </g>
            <g id="Group-Copy-2" transform="translate(20.000000, 0.000000)" fill="#616161">
                <g id="Star0" transform="translate(0.200000, 0.400000)">
                    <path d="M8.12493266,1.25 C8.04910266,1.25 7.86243266,1.27083 7.76326266,1.46917 L6.24159266,4.51167 C6.00076266,4.9925 5.53660266,5.32667 4.99993266,5.40333 L1.59326266,5.89417 C1.36826266,5.92667 1.29159266,6.09333 1.26826266,6.16333 C1.24743266,6.23083 1.21409266,6.4025 1.36909266,6.55083 L3.83243266,8.9175 C4.22493266,9.295 4.40326266,9.8392 4.30993266,10.3717 L3.72993266,13.7133 C3.69409266,13.9225 3.82493266,14.0442 3.88326266,14.0858 C3.94493266,14.1325 4.10993266,14.225 4.31409266,14.1183 L7.35993266,12.5392 C7.83993266,12.2917 8.41155266,12.2917 8.88995266,12.5392 L11.9349527,14.1175 C12.1399527,14.2233 12.3049527,14.1308 12.3674527,14.0858 C12.4257527,14.0442 12.5565527,13.9225 12.5207527,13.7133 L11.9390527,10.3717 C11.8457527,9.8392 12.0240527,9.295 12.4165527,8.9175 L14.8799527,6.55083 C15.0357527,6.4025 15.0024527,6.23 14.9807527,6.16333 C14.9582527,6.09333 14.8815527,5.92667 14.6565527,5.89417 L11.2499527,5.40333 C10.7140527,5.32667 10.2499527,4.9925 10.0090527,4.51083 L8.48575266,1.46917 C8.38745266,1.27083 8.20076266,1.25 8.12493266,1.25 Z M4.12243266,15.4167 C3.77826266,15.4167 3.43660266,15.3083 3.14410266,15.095 C2.63910266,14.725 2.39160266,14.1142 2.49910266,13.4992 L3.07910266,10.1575 C3.10076266,10.0333 3.05826266,9.9075 2.96660266,9.8192 L0.503262664,7.4525 C0.0499326642,7.01833 -0.112567336,6.37667 0.0790926642,5.78083 C0.272432664,5.17833 0.784092664,4.7475 1.41493266,4.6575 L4.82160266,4.16667 C4.95326266,4.14833 5.06660266,4.0675 5.12326266,3.9525 L6.64576266,0.90917 C6.92660266,0.34833 7.49326266,0 8.12493266,0 C8.75655266,0 9.32325266,0.34833 9.60405266,0.90917 L11.1274527,3.95167 C11.1849527,4.0675 11.2974527,4.14833 11.4282527,4.16667 L14.8349527,4.6575 C15.4657527,4.7475 15.9774527,5.17833 16.1707527,5.78083 C16.3624527,6.37667 16.1990527,7.01833 15.7457527,7.4525 L13.2824527,9.8192 C13.1907527,9.9075 13.1490527,10.0333 13.1707527,10.1567 L13.7515527,13.4992 C13.8582527,14.115 13.6107527,14.7258 13.1049527,15.095 C12.5924527,15.4708 11.9249527,15.5217 11.3590527,15.2267 L8.31493266,13.6492 C8.19576266,13.5875 8.05326266,13.5875 7.93410266,13.6492 L4.88993266,15.2275 C4.64660266,15.3542 4.38410266,15.4167 4.12243266,15.4167 Z" id="Shape"></path>
                </g>
            </g>
            <g id="Group-Copy" fill="#FF981F" fill-rule="nonzero">
                <g id="Star1">
                    <path d="M13.2657367,9.85 C13.0499367,10.0592 12.9507367,10.3617 12.9999367,10.6583 L13.7407367,14.7583 C13.8032367,15.1058 13.6565367,15.4575 13.3657367,15.6583 C13.0807367,15.8667 12.7015367,15.8917 12.3907367,15.725 L8.69993667,13.8 C8.57153667,13.7317 8.42903667,13.695 8.28322667,13.6908 L8.05739667,13.6908 C7.97905667,13.7025 7.90239667,13.7275 7.83239667,13.7658 L4.14072667,15.7 C3.95822667,15.7917 3.75155667,15.8242 3.54905667,15.7917 C3.05572667,15.6983 2.72655667,15.2283 2.80739667,14.7325 L3.54905667,10.6325 C3.59822667,10.3333 3.49905667,10.0292 3.28322667,9.8167 L0.274056675,6.9 C0.0223966747,6.65583 -0.0651033253,6.28916 0.0498966747,5.95833 C0.161556675,5.62833 0.446556675,5.3875 0.790726675,5.33333 L4.93239667,4.7325 C5.24739667,4.7 5.52405667,4.50833 5.66572667,4.225 L7.49072667,0.48333 C7.53405667,0.4 7.58989667,0.32333 7.65739667,0.25833 L7.73239667,0.2 C7.77155667,0.15666 7.81655667,0.12083 7.86655667,0.09166 L7.95739667,0.05833 L8.09905667,8.8817842e-16 L8.44993667,8.8817842e-16 C8.76323667,0.0325 9.03903667,0.22 9.18323667,0.5 L11.0324367,4.225 C11.1657367,4.4975 11.4249367,4.68666 11.7240367,4.7325 L15.8657367,5.33333 C16.2157367,5.38333 16.5082367,5.625 16.6240367,5.95833 C16.7332367,6.2925 16.6390367,6.65916 16.3824367,6.9 L13.2657367,9.85 Z" id="Path"></path>
                </g>
            </g>
        </g>
    </g>
</svg>