<svg width="18" height="16" viewBox="0 0 18 16" fill="none" xmlns="http://www.w3.org/2000/svg">
<path fill-rule="evenodd" clip-rule="evenodd" d="M12.2077 0.0838733C12.7335 0.0838733 13.2585 0.15804 13.7577 0.32554C16.8335 1.32554 17.9419 4.70054 17.016 7.65054C16.491 9.15804 15.6327 10.5339 14.5085 11.658C12.8994 13.2164 11.1335 14.5997 9.2327 15.7914L9.02436 15.9172L8.8077 15.783C6.9002 14.5997 5.12436 13.2164 3.5002 11.6497C2.38353 10.5255 1.52436 9.15804 0.991029 7.65054C0.0493627 4.70054 1.1577 1.32554 4.26686 0.30804C4.50853 0.224707 4.7577 0.166373 5.0077 0.133873H5.1077C5.34186 0.0997066 5.57436 0.0838733 5.8077 0.0838733H5.89936C6.42436 0.0997066 6.9327 0.191373 7.4252 0.358873H7.47436C7.5077 0.374707 7.5327 0.392207 7.54936 0.40804C7.73353 0.467207 7.9077 0.533873 8.07436 0.62554L8.39103 0.767207C8.46755 0.808016 8.55343 0.870372 8.62766 0.924264C8.67469 0.95841 8.71704 0.989157 8.74936 1.00887C8.76296 1.0169 8.77679 1.02497 8.79072 1.0331C8.86217 1.07481 8.9366 1.11826 8.99936 1.16637C9.9252 0.458873 11.0494 0.07554 12.2077 0.0838733ZM14.4244 6.08387C14.766 6.07471 15.0577 5.80054 15.0827 5.44971V5.35054C15.1077 4.18304 14.4002 3.12554 13.3244 2.71721C12.9827 2.59971 12.6077 2.78387 12.4827 3.13387C12.366 3.48387 12.5494 3.86721 12.8994 3.99137C13.4335 4.19137 13.791 4.71721 13.791 5.29971V5.32554C13.7752 5.51637 13.8327 5.70054 13.9494 5.84221C14.066 5.98387 14.241 6.06637 14.4244 6.08387Z" fill="#212121"/>
</svg>
