<svg width="25" height="24" viewBox="0 0 25 24" fill="none" xmlns="http://www.w3.org/2000/svg">
<path fill-rule="evenodd" clip-rule="evenodd" d="M12.0892 12.6188H12.1212C15.0492 12.6188 17.4302 10.2378 17.4302 7.30976C17.4302 4.38176 15.0492 1.99976 12.1212 1.99976C9.19221 1.99976 6.81021 4.38176 6.81021 7.30676C6.80021 10.2268 9.16721 12.6098 12.0892 12.6188ZM8.23821 7.30976C8.23821 5.16876 9.98021 3.42776 12.1212 3.42776C14.2612 3.42776 16.0022 5.16876 16.0022 7.30976C16.0022 9.44976 14.2612 11.1918 12.1212 11.1918H12.0922C9.96021 11.1838 8.23121 9.44376 8.23821 7.30976Z" fill="#9E9E9E"/>
<path fill-rule="evenodd" clip-rule="evenodd" d="M4.2002 18.1731C4.2002 21.8701 10.1622 21.8701 12.1212 21.8701C15.5202 21.8701 20.0402 21.4891 20.0402 18.1931C20.0402 14.4961 14.0802 14.4961 12.1212 14.4961C8.7212 14.4961 4.2002 14.8771 4.2002 18.1731ZM5.7002 18.1731C5.7002 16.7281 7.8602 15.9961 12.1212 15.9961C16.3812 15.9961 18.5402 16.7351 18.5402 18.1931C18.5402 19.6381 16.3812 20.3701 12.1212 20.3701C7.8602 20.3701 5.7002 19.6311 5.7002 18.1731Z" fill="#9E9E9E"/>
</svg>
