<svg width="25" height="24" viewBox="0 0 25 24" fill="none" xmlns="http://www.w3.org/2000/svg">
<path fill-rule="evenodd" clip-rule="evenodd" d="M15.7079 16.885H9.89287C9.47887 16.885 9.14287 16.549 9.14287 16.135C9.14287 15.721 9.47887 15.385 9.89287 15.385H15.7079C16.1219 15.385 16.4579 15.721 16.4579 16.135C16.4579 16.549 16.1219 16.885 15.7079 16.885ZM20.0489 6.158C19.6859 5.838 19.2729 5.476 18.7809 5.021C18.5579 4.841 18.3139 4.635 18.0549 4.417C16.5949 3.186 14.5949 1.5 12.7719 1.5C10.9699 1.5 9.09887 3.092 7.59587 4.371C7.31787 4.607 7.05787 4.829 6.79287 5.044C6.32687 5.476 5.91387 5.839 5.54987 6.16C3.16287 8.261 2.71387 8.812 2.71387 13.713C2.71387 22.5 5.25487 22.5 12.7999 22.5C20.3439 22.5 22.8859 22.5 22.8859 13.713C22.8859 8.811 22.4369 8.26 20.0489 6.158Z" fill="#212121"/>
</svg>
