<svg width="25" height="24" viewBox="0 0 25 24" fill="none" xmlns="http://www.w3.org/2000/svg">
<path fill-rule="evenodd" clip-rule="evenodd" d="M9.12891 16.1354C9.12891 15.7212 9.46469 15.3854 9.87891 15.3854H15.6939C16.1081 15.3854 16.4439 15.7212 16.4439 16.1354C16.4439 16.5496 16.1081 16.8854 15.6939 16.8854H9.87891C9.46469 16.8854 9.12891 16.5496 9.12891 16.1354Z" fill="#9E9E9E"/>
<path fill-rule="evenodd" clip-rule="evenodd" d="M7.61005 5.97765C7.19751 6.35978 6.82709 6.68822 6.49782 6.97845C6.45134 7.01941 6.40583 7.05949 6.36124 7.09875C6.08233 7.34435 5.83944 7.55824 5.62127 7.75963C5.11596 8.22608 4.79677 8.57827 4.57104 8.97216C4.11854 9.76176 3.9502 10.869 3.9502 13.713C3.9502 15.7691 4.07326 17.2451 4.35135 18.3153C4.62435 19.3658 5.03131 19.9679 5.57042 20.3548C6.13345 20.759 6.93724 20.9997 8.14764 21.1245C9.35685 21.2491 10.8652 21.25 12.7862 21.25C14.7072 21.25 16.2155 21.2491 17.4247 21.1245C18.6352 20.9997 19.4389 20.759 20.002 20.3548C20.5411 19.9679 20.948 19.3658 21.221 18.3153C21.4991 17.2451 21.6222 15.7691 21.6222 13.713C21.6222 10.8689 21.4541 9.76166 21.0018 8.97204C20.7762 8.57818 20.4571 8.22601 19.9519 7.75958C19.7336 7.55801 19.4905 7.34391 19.2113 7.09801C19.1669 7.05898 19.1217 7.01914 19.0755 6.97843C18.7463 6.6882 18.3759 6.35976 17.9633 5.97762C17.7191 5.78041 17.4661 5.56703 17.2039 5.34588C16.6328 4.86414 16.0179 4.34554 15.3546 3.87695C14.3697 3.18118 13.4777 2.75 12.7582 2.75C12.0411 2.75 11.1612 3.18121 10.1893 3.87803C9.55504 4.33278 8.97481 4.827 8.42962 5.29137C8.14795 5.53128 7.87564 5.76323 7.61005 5.97765ZM9.31532 2.65897C10.3156 1.94179 11.5323 1.25 12.7582 1.25C13.9807 1.25 15.2072 1.93632 16.2201 2.6518C16.936 3.15759 17.6443 3.75449 18.2372 4.25416C18.4901 4.46729 18.722 4.66274 18.9246 4.82587C18.9382 4.83681 18.9514 4.84822 18.9642 4.86008C19.3702 5.23662 19.7356 5.5607 20.0674 5.85318C20.1124 5.89284 20.1569 5.93205 20.2009 5.97083C20.4788 6.21553 20.737 6.4429 20.9694 6.65748C21.5087 7.15537 21.9626 7.63157 22.3034 8.22646C22.9838 9.41434 23.1222 10.9261 23.1222 13.713C23.1222 15.8004 23.0004 17.432 22.6728 18.6926C22.3402 19.9727 21.7807 20.9245 20.8767 21.5734C19.9966 22.2051 18.8806 22.4824 17.5785 22.6166C16.2839 22.75 14.6996 22.75 12.8234 22.75H12.749C10.8728 22.75 9.2885 22.75 7.99384 22.6166C6.69184 22.4824 5.57582 22.2051 4.69573 21.5734C3.79171 20.9245 3.23223 19.9727 2.89957 18.6926C2.57201 17.432 2.4502 15.8004 2.4502 13.713C2.4502 10.926 2.58885 9.41424 3.2696 8.22634C3.6105 7.63148 4.06449 7.1553 4.60384 6.65743C4.83603 6.4431 5.09395 6.216 5.3715 5.97161C5.41584 5.93257 5.46068 5.89309 5.50599 5.85316C5.83781 5.56069 6.20319 5.23661 6.60921 4.86008C6.62204 4.84818 6.63527 4.83674 6.6489 4.82577C6.86102 4.65502 7.10858 4.44454 7.38012 4.21367C7.95411 3.72566 8.63524 3.14655 9.31532 2.65897Z" fill="#9E9E9E"/>
</svg>
