<svg width="25" height="24" viewBox="0 0 25 24" fill="none" xmlns="http://www.w3.org/2000/svg">
<path fill-rule="evenodd" clip-rule="evenodd" d="M9.32516 16.39H14.7113C15.1172 16.39 15.4539 16.05 15.4539 15.64C15.4539 15.23 15.1172 14.9 14.7113 14.9H9.32516C8.91922 14.9 8.58258 15.23 8.58258 15.64C8.58258 16.05 8.91922 16.39 9.32516 16.39ZM12.6717 9.9H9.32516C8.91922 9.9 8.58258 10.24 8.58258 10.65C8.58258 11.06 8.91922 11.39 9.32516 11.39H12.6717C13.0776 11.39 13.4143 11.06 13.4143 10.65C13.4143 10.24 13.0776 9.9 12.6717 9.9ZM19.7375 9.02561C19.9702 9.02292 20.2236 9.02 20.4539 9.02C20.7014 9.02 20.8994 9.22 20.8994 9.47V17.51C20.8994 19.99 18.9093 22 16.4539 22H8.57268C5.99842 22 3.89941 19.89 3.89941 17.29V6.51C3.89941 4.03 5.89941 2 8.36476 2H13.6519C13.9093 2 14.1073 2.21 14.1073 2.46V5.68C14.1073 7.51 15.6024 9.01 17.4143 9.02C17.8375 9.02 18.2106 9.02316 18.5371 9.02593C18.7911 9.02809 19.017 9.03 19.2162 9.03C19.3572 9.03 19.5399 9.02789 19.7375 9.02561ZM20.0105 7.566C19.1966 7.569 18.2372 7.566 17.5471 7.559C16.4521 7.559 15.5501 6.648 15.5501 5.542V2.906C15.5501 2.475 16.0679 2.261 16.364 2.572C16.8998 3.13476 17.6363 3.90834 18.3693 4.67837C19.1003 5.44632 19.828 6.21074 20.3501 6.759C20.6392 7.062 20.4273 7.565 20.0105 7.566Z" fill="#212121"/>
</svg>
