<svg width="25" height="24" viewBox="0 0 25 24" fill="none" xmlns="http://www.w3.org/2000/svg">
<mask id="mask0_16832_5575" style="mask-type:luminance" maskUnits="userSpaceOnUse" x="1" y="1" width="23" height="22">
<path fill-rule="evenodd" clip-rule="evenodd" d="M1.59961 1.00024H23.0926V22.494H1.59961V1.00024Z" fill="white"/>
</mask>
<g mask="url(#mask0_16832_5575)">
<path fill-rule="evenodd" clip-rule="evenodd" d="M6.70805 19.6752C7.28805 19.6752 7.83505 19.8952 8.41405 20.1282C11.961 21.7682 16.156 21.0222 18.889 18.2902C22.495 14.6822 22.495 8.81324 18.889 5.20724C17.143 3.46124 14.821 2.50024 12.349 2.50024C9.87605 2.50024 7.55305 3.46224 5.80805 5.20824C3.07405 7.94024 2.33005 12.1352 3.95505 15.6482C4.18905 16.2272 4.41505 16.7912 4.41505 17.3772C4.41505 17.9622 4.21405 18.5512 4.03705 19.0712C3.89105 19.4992 3.67005 20.1452 3.81205 20.2872C3.95105 20.4312 4.60105 20.2042 5.03005 20.0572C5.54505 19.8812 6.12905 19.6792 6.70805 19.6752ZM12.324 22.4942C10.796 22.4942 9.25805 22.1712 7.81905 21.5052C7.39505 21.3352 6.99805 21.1752 6.71305 21.1752C6.38505 21.1772 5.94405 21.3292 5.51805 21.4762C4.64405 21.7762 3.55605 22.1502 2.75105 21.3482C1.94905 20.5452 2.31905 19.4602 2.61705 18.5872C2.76405 18.1572 2.91505 17.7132 2.91505 17.3772C2.91505 17.1012 2.78205 16.7492 2.57805 16.2422C0.705046 12.1972 1.57105 7.32224 4.74805 4.14724C6.77605 2.11824 9.47505 1.00024 12.348 1.00024C15.221 1.00024 17.921 2.11724 19.949 4.14624C24.141 8.33824 24.141 15.1582 19.949 19.3502C17.894 21.4062 15.127 22.4942 12.324 22.4942Z" fill="#9E9E9E"/>
</g>
<path fill-rule="evenodd" clip-rule="evenodd" d="M16.296 13.1628C15.744 13.1628 15.292 12.7158 15.292 12.1628C15.292 11.6098 15.735 11.1628 16.287 11.1628H16.296C16.848 11.1628 17.296 11.6098 17.296 12.1628C17.296 12.7158 16.848 13.1628 16.296 13.1628Z" fill="#9E9E9E"/>
<path fill-rule="evenodd" clip-rule="evenodd" d="M12.2872 13.1628C11.7352 13.1628 11.2832 12.7158 11.2832 12.1628C11.2832 11.6098 11.7252 11.1628 12.2782 11.1628H12.2872C12.8392 11.1628 13.2872 11.6098 13.2872 12.1628C13.2872 12.7158 12.8392 13.1628 12.2872 13.1628Z" fill="#9E9E9E"/>
<path fill-rule="evenodd" clip-rule="evenodd" d="M8.27744 13.1628C7.72544 13.1628 7.27344 12.7158 7.27344 12.1628C7.27344 11.6098 7.71644 11.1628 8.26844 11.1628H8.27744C8.82944 11.1628 9.27744 11.6098 9.27744 12.1628C9.27744 12.7158 8.82944 13.1628 8.27744 13.1628Z" fill="#9E9E9E"/>
</svg>
