<svg width="25" height="24" viewBox="0 0 25 24" fill="none" xmlns="http://www.w3.org/2000/svg">
<mask id="mask0_16832_5551" style="mask-type:luminance" maskUnits="userSpaceOnUse" x="3" y="2" width="18" height="20">
<path fill-rule="evenodd" clip-rule="evenodd" d="M3.39941 2.01172H20.4521V21.8652H3.39941V2.01172Z" fill="white"/>
</mask>
<g mask="url(#mask0_16832_5551)">
<path fill-rule="evenodd" clip-rule="evenodd" d="M7.97252 3.51172C6.31552 3.51172 4.93952 4.85372 4.90052 6.50872V17.2037C4.86352 18.9167 6.21352 20.3277 7.90952 20.3657H15.9735C17.6425 20.2967 18.9645 18.9097 18.9525 17.2097V8.33972L14.3175 3.51172H7.98452H7.97252ZM7.98452 21.8657H7.87552C5.35352 21.8087 3.34552 19.7107 3.40052 17.1877V6.49072C3.45852 4.00972 5.50752 2.01172 7.97052 2.01172H7.98752H14.6375C14.8415 2.01172 15.0365 2.09472 15.1785 2.24172L20.2435 7.51872C20.3775 7.65772 20.4525 7.84472 20.4525 8.03772V17.2037C20.4705 19.7127 18.5165 21.7627 16.0035 21.8647L7.98452 21.8657Z" fill="#9E9E9E"/>
</g>
<path fill-rule="evenodd" clip-rule="evenodd" d="M14.1881 16.1084H8.78809C8.37409 16.1084 8.03809 15.7724 8.03809 15.3584C8.03809 14.9444 8.37409 14.6084 8.78809 14.6084H14.1881C14.6021 14.6084 14.9381 14.9444 14.9381 15.3584C14.9381 15.7724 14.6021 16.1084 14.1881 16.1084Z" fill="#9E9E9E"/>
<path fill-rule="evenodd" clip-rule="evenodd" d="M12.1431 12.3564H8.78711C8.37311 12.3564 8.03711 12.0204 8.03711 11.6064C8.03711 11.1924 8.37311 10.8564 8.78711 10.8564H12.1431C12.5571 10.8564 12.8931 11.1924 12.8931 11.6064C12.8931 12.0204 12.5571 12.3564 12.1431 12.3564Z" fill="#9E9E9E"/>
<path fill-rule="evenodd" clip-rule="evenodd" d="M19.698 8.98424H16.943C15.113 8.97924 13.625 7.48724 13.625 5.65924V2.75024C13.625 2.33624 13.961 2.00024 14.375 2.00024C14.789 2.00024 15.125 2.33624 15.125 2.75024V5.65924C15.125 6.66324 15.942 7.48124 16.945 7.48424H19.698C20.112 7.48424 20.448 7.82024 20.448 8.23424C20.448 8.64824 20.112 8.98424 19.698 8.98424Z" fill="#9E9E9E"/>
</svg>
