<svg width="25" height="24" viewBox="0 0 25 24" fill="none" xmlns="http://www.w3.org/2000/svg">
<path fill-rule="evenodd" clip-rule="evenodd" d="M2.59961 12.015C2.59961 6.74712 6.80961 2 12.6196 2C18.2996 2 22.5996 6.65699 22.5996 11.985C22.5996 18.1642 17.5596 22 12.5996 22C10.9596 22 9.13961 21.5593 7.67961 20.698C7.16961 20.3876 6.73961 20.1572 6.18961 20.3375L4.16961 20.9384C3.65961 21.0986 3.19961 20.698 3.34961 20.1572L4.01961 17.9139C4.12961 17.6034 4.10961 17.2729 3.94961 17.0125C3.08961 15.4301 2.59961 13.6975 2.59961 12.015ZM11.2996 12.015C11.2996 12.7261 11.8696 13.2969 12.5796 13.307C13.2896 13.307 13.8596 12.7261 13.8596 12.025C13.8596 11.314 13.2896 10.7431 12.5796 10.7431C11.8796 10.7331 11.2996 11.314 11.2996 12.015ZM15.9096 12.025C15.9096 12.7261 16.4796 13.307 17.1896 13.307C17.8996 13.307 18.4696 12.7261 18.4696 12.025C18.4696 11.314 17.8996 10.7431 17.1896 10.7431C16.4796 10.7431 15.9096 11.314 15.9096 12.025ZM7.96961 13.307C7.26961 13.307 6.68961 12.7261 6.68961 12.025C6.68961 11.314 7.25961 10.7431 7.96961 10.7431C8.67961 10.7431 9.24961 11.314 9.24961 12.025C9.24961 12.7261 8.67961 13.2969 7.96961 13.307Z" fill="#212121"/>
</svg>
