<svg width="20" height="21" viewBox="0 0 20 21" fill="none" xmlns="http://www.w3.org/2000/svg">
<mask id="mask0_16891_4838" style="mask-type:luminance" maskUnits="userSpaceOnUse" x="1" y="2" width="17" height="17">
<path fill-rule="evenodd" clip-rule="evenodd" d="M1.66699 2.1665H17.8977V18.3973H1.66699V2.1665Z" fill="white"/>
</mask>
<g mask="url(#mask0_16891_4838)">
<path fill-rule="evenodd" clip-rule="evenodd" d="M9.78283 3.4165C5.99699 3.4165 2.91699 6.49567 2.91699 10.2815C2.91699 14.0673 5.99699 17.1473 9.78283 17.1473C13.5678 17.1473 16.6478 14.0673 16.6478 10.2815C16.6478 6.49567 13.5678 3.4165 9.78283 3.4165ZM9.78283 18.3973C5.30783 18.3973 1.66699 14.7565 1.66699 10.2815C1.66699 5.8065 5.30783 2.1665 9.78283 2.1665C14.2578 2.1665 17.8978 5.8065 17.8978 10.2815C17.8978 14.7565 14.2578 18.3973 9.78283 18.3973Z" fill="#BDBDBD"/>
</g>
<mask id="mask1_16891_4838" style="mask-type:luminance" maskUnits="userSpaceOnUse" x="14" y="15" width="5" height="5">
<path fill-rule="evenodd" clip-rule="evenodd" d="M14.3672 15.2559H18.5539V19.4348H14.3672V15.2559Z" fill="white"/>
</mask>
<g mask="url(#mask1_16891_4838)">
<path fill-rule="evenodd" clip-rule="evenodd" d="M17.9291 19.4348C17.7699 19.4348 17.6099 19.374 17.4874 19.2523L14.5507 16.324C14.3066 16.0798 14.3057 15.684 14.5499 15.4398C14.7932 15.194 15.1891 15.1957 15.4341 15.4382L18.3707 18.3673C18.6149 18.6115 18.6157 19.0065 18.3716 19.2507C18.2499 19.374 18.0891 19.4348 17.9291 19.4348Z" fill="#BDBDBD"/>
</g>
</svg>
