<svg width="12" height="12" viewBox="0 0 12 12" fill="none" xmlns="http://www.w3.org/2000/svg">
<path opacity="0.4" d="M6.48815 1.55681L7.60139 3.79394C7.68341 3.95603 7.83994 4.06858 8.02048 4.0936L10.521 4.45778C10.667 4.47829 10.7996 4.55533 10.8891 4.67289C10.9776 4.78895 11.0156 4.93603 10.9941 5.0806C10.9766 5.20066 10.9201 5.31172 10.8336 5.39676L9.02169 7.15315C8.88917 7.27571 8.82915 7.45731 8.86116 7.6349L9.30726 10.1042C9.35477 10.4023 9.15722 10.6834 8.86116 10.74C8.73913 10.7595 8.61411 10.739 8.50408 10.6829L6.2736 9.52086C6.10807 9.43731 5.91253 9.43731 5.74699 9.52086L3.51651 10.6829C3.24245 10.8285 2.90288 10.7295 2.75035 10.4593C2.69384 10.3518 2.67383 10.2292 2.69234 10.1097L3.13843 7.6399C3.17044 7.46281 3.10993 7.28022 2.9779 7.15765L1.16601 5.40226C0.950462 5.19416 0.943961 4.85148 1.15151 4.63587C1.15601 4.63137 1.16101 4.62637 1.16601 4.62137C1.25203 4.53382 1.36505 4.47829 1.48708 4.46379L3.98761 4.0991C4.16765 4.07359 4.32419 3.96203 4.4067 3.79895L5.47993 1.55681C5.57545 1.36471 5.7735 1.24515 5.98854 1.25015H6.05556C6.2421 1.27266 6.40463 1.38822 6.48815 1.55681Z" fill="#FF981F"/>
<path d="M5.99601 9.45856C5.89916 9.46156 5.8048 9.48758 5.71993 9.53412L3.50036 10.6936C3.22878 10.8232 2.90378 10.7226 2.75152 10.4629C2.6951 10.3568 2.67464 10.2352 2.69361 10.1161L3.13692 7.65158C3.16688 7.47243 3.10697 7.29028 2.97667 7.16418L1.16397 5.40924C0.948801 5.19857 0.944807 4.85278 1.15548 4.63711C1.15848 4.6341 1.16097 4.6316 1.16397 4.6291C1.24984 4.54403 1.36066 4.48798 1.47998 4.47047L3.98262 4.10217C4.16384 4.07915 4.32109 3.96605 4.40097 3.80192L5.48879 1.53156C5.59213 1.34841 5.79032 1.23932 6 1.25083C5.99601 1.39945 5.99601 9.35748 5.99601 9.45856Z" fill="#FF981F"/>
</svg>
