<svg width="25" height="25" viewBox="0 0 25 25" fill="none" xmlns="http://www.w3.org/2000/svg">
<path d="M17.3398 6.29639C17.7195 6.29639 18.0333 6.57854 18.083 6.94462L18.0898 7.04639V20.6642C18.0898 21.0784 17.7541 21.4142 17.3398 21.4142C16.9601 21.4142 16.6464 21.132 16.5967 20.7659L16.5898 20.6642V7.04639C16.5898 6.63217 16.9256 6.29639 17.3398 6.29639Z" fill="#212121"/>
<path d="M20.8857 16.0393C21.1779 15.7457 21.6528 15.7446 21.9464 16.0368C22.2133 16.3025 22.2384 16.7191 22.0213 17.0132L21.9488 17.0975L17.8711 21.1941C17.6045 21.4619 17.1863 21.4862 16.8922 21.2672L16.8079 21.1941L12.7302 17.0975C12.4379 16.8039 12.439 16.329 12.7326 16.0368C12.9995 15.7712 13.4162 15.7479 13.7093 15.9664L13.7933 16.0393L17.3391 19.6012L20.8857 16.0393Z" fill="#212121"/>
<path d="M7.41113 3.58301C7.79083 3.58301 8.10462 3.86516 8.15429 4.23124L8.16113 4.33301V17.9508C8.16113 18.365 7.82535 18.7008 7.41113 18.7008C7.03144 18.7008 6.71764 18.4186 6.66798 18.0526L6.66113 17.9508V4.33301C6.66113 3.91879 6.99692 3.58301 7.41113 3.58301Z" fill="#212121"/>
<path d="M6.87972 3.80342C7.14624 3.53566 7.56449 3.51132 7.8586 3.73039L7.94283 3.80342L12.0206 7.90008C12.3128 8.19365 12.3117 8.66852 12.0182 8.96074C11.7513 9.22639 11.3346 9.24963 11.0414 9.0311L10.9575 8.95829L7.41105 5.39519L3.86505 8.95829C3.5994 9.22517 3.18279 9.25034 2.88868 9.03316L2.80439 8.96074C2.53751 8.69509 2.51234 8.27848 2.72952 7.98437L2.80194 7.90008L6.87972 3.80342Z" fill="#212121"/>
</svg>
